<svg id="svg2" xmlns:rdf="http://www.w3.org/1999/02/22-rdf-syntax-ns#" xmlns="http://www.w3.org/2000/svg" height="500" viewBox="0 0 500.00001 500.00001" width="500" version="1.1" xmlns:cc="http://creativecommons.org/ns#" xmlns:dc="http://purl.org/dc/elements/1.1/">
 <path id="path4220" d="m192.3 5.563l-0.6 1.232-56.4 112.6-0.2 0.5v0.6 371.7 2.2h2.3 56.3 2.2v-2.2-360.5c0-12.4 7.1-26.1 17.6-36.51 10.4-10.44 24.1-17.53 36.5-17.53s26.1 7.09 36.5 17.53c10.5 10.41 17.6 24.11 17.6 36.51v360.5 2.2h2.2 56.3 2.3v-2.2-371.7-0.6l-0.2-0.5-56.4-112.6c0-0.005-0.6-1.237-0.6-1.237h-1.4-112.6-1.4" stroke="#000" fill="none"/>
 <path id="poutre" style="color-rendering:auto;color:#000000;isolation:auto;mix-blend-mode:normal;shape-rendering:auto;solid-color:#000000;image-rendering:auto" d="m134.2 120.1v374.7h63.3v-374.7h-63.3m168.3 0v374.7h63.3v-374.7h-63.3" fill="none"/>
 <path id="skimmer" stroke-linejoin="round" style="color-rendering:auto;color:#000000;isolation:auto;mix-blend-mode:normal;shape-rendering:auto;solid-color:#000000;image-rendering:auto" d="m202.7 341.8h94.6v55.9h-94.6v-55.9" stroke="#000" stroke-linecap="round" fill="none"/>
 <path id="after-skimmer" style="color-rendering:auto;color:#000000;isolation:auto;mix-blend-mode:normal;shape-rendering:auto;solid-color:#000000;image-rendering:auto" d="m202.7 404.2h94.6v89.7h-94.6v-89.7" fill="none"/>
 <path id="before-skimmer" style="color-rendering:auto;color:#000000;isolation:auto;mix-blend-mode:normal;shape-rendering:auto;solid-color:#000000;image-rendering:auto" d="m202.7 245.7h94.6v89.7h-94.6v-89.7" fill="none"/>
 <path id="impact" style="color-rendering:auto;color:#000000;isolation:auto;mix-blend-mode:normal;shape-rendering:auto;solid-color:#000000;image-rendering:auto" d="m300.7 135.3c0 13.4-5.4 26.3-14.9 35.8s-22.4 14.8-35.8 14.8-26.3-5.3-35.8-14.8-14.9-22.4-14.9-35.8c0-13.5 5.4-26.4 14.9-35.89 9.5-9.51 22.4-14.85 35.8-14.85s26.3 5.34 35.8 14.85c9.5 9.49 14.9 22.39 14.9 35.89" fill="none"/>
</svg>
